<svg xmlns="http://www.w3.org/2000/svg" width="64" height="64" viewBox="0 0 64 64" fill="none">
  <rect width="64" height="64" rx="12" fill="#2441BB"></rect>
  <g transform="translate(16,16)" stroke="#FFFFFF" stroke-width="2.6667" stroke-linecap="round" stroke-linejoin="round">
    <path d="M26.667 17.333c0 6.667-4.667 10-10.213 11.933a1.333 1.333 0 0 1-.894-.014C9.333 27.333 4.667 24 4.667 17.333V8a1.333 1.333 0 0 1 1.333-1.333c2.667 0 6-1.6 8.32-3.627a1.56 1.56 0 0 1 2.026 0C18.667 5.067 22 6.667 24.667 6.667A1.333 1.333 0 0 1 26 8z"></path>
    <path d="m11.333 16 2.667 2.667 5.333-5.334"></path>
  </g>
</svg>
